{
	"accessors" : 
	[
		{
			"bufferView" : 2,
			"byteOffset" : 0,
			"componentType" : 5126,
			"count" : 11681,
			"max" : 
			[
				1,
				1,
				1,
				1
			],
			"min" : 
			[
				0,
				0.006584956776350737,
				0.006584956776350737,
				1
			],
			"name" : "accessor_color_m0-PolyPaper17_-612848",
			"type" : "VEC4"
		},
		{
			"bufferView" : 2,
			"byteOffset" : 186896,
			"componentType" : 5126,
			"count" : 2592,
			"max" : 
			[
				1,
				1,
				1,
				1
			],
			"min" : 
			[
				1,
				1,
				1,
				1
			],
			"name" : "accessor_color_m1-PolyGlass24_-612854",
			"type" : "VEC4"
		},
		{
			"bufferView" : 2,
			"byteOffset" : 228368,
			"componentType" : 5126,
			"count" : 3609,
			"max" : 
			[
				1,
				1,
				1,
				1
			],
			"min" : 
			[
				5.692175545846112e-05,
				0.01606770046055317,
				0,
				1
			],
			"name" : "accessor_color_m2-PolyPaper12_-612860",
			"type" : "VEC4"
		},
		{
			"bufferView" : 0,
			"byteOffset" : 0,
			"componentType" : 5123,
			"count" : 17445,
			"max" : 
			[
				11680
			],
			"min" : 
			[
				0
			],
			"name" : "accessor_indices_0_m0-PolyPaper17_-612848",
			"type" : "SCALAR"
		},
		{
			"bufferView" : 0,
			"byteOffset" : 34890,
			"componentType" : 5123,
			"count" : 3744,
			"max" : 
			[
				2591
			],
			"min" : 
			[
				0
			],
			"name" : "accessor_indices_0_m1-PolyGlass24_-612854",
			"type" : "SCALAR"
		},
		{
			"bufferView" : 0,
			"byteOffset" : 42378,
			"componentType" : 5123,
			"count" : 5295,
			"max" : 
			[
				3608
			],
			"min" : 
			[
				0
			],
			"name" : "accessor_indices_0_m2-PolyPaper12_-612860",
			"type" : "SCALAR"
		},
		{
			"bufferView" : 1,
			"byteOffset" : 140172,
			"componentType" : 5126,
			"count" : 11681,
			"max" : 
			[
				1,
				1,
				1
			],
			"min" : 
			[
				-1,
				-1,
				-1
			],
			"name" : "accessor_normal_m0-PolyPaper17_-612848",
			"type" : "VEC3"
		},
		{
			"bufferView" : 1,
			"byteOffset" : 311448,
			"componentType" : 5126,
			"count" : 2592,
			"max" : 
			[
				0.9998949,
				0.9901459,
				0.9992177
			],
			"min" : 
			[
				-0.9998949,
				-0.6604477,
				-0.9992177
			],
			"name" : "accessor_normal_m1-PolyGlass24_-612854",
			"type" : "VEC3"
		},
		{
			"bufferView" : 1,
			"byteOffset" : 385860,
			"componentType" : 5126,
			"count" : 3609,
			"max" : 
			[
				1,
				1,
				1
			],
			"min" : 
			[
				-1,
				-1,
				-1
			],
			"name" : "accessor_normal_m2-PolyPaper12_-612860",
			"type" : "VEC3"
		},
		{
			"bufferView" : 1,
			"byteOffset" : 0,
			"componentType" : 5126,
			"count" : 11681,
			"max" : 
			[
				1.060061,
				2.309016,
				1.059911
			],
			"min" : 
			[
				-0.9699394,
				1.361482,
				-0.6750890000000001
			],
			"name" : "accessor_position_m0-PolyPaper17_-612848",
			"type" : "VEC3"
		},
		{
			"bufferView" : 1,
			"byteOffset" : 280344,
			"componentType" : 5126,
			"count" : 2592,
			"max" : 
			[
				0.4143934,
				2.043409,
				1.012334
			],
			"min" : 
			[
				-0.7176858,
				2.014635,
				-0.6408497
			],
			"name" : "accessor_position_m1-PolyGlass24_-612854",
			"type" : "VEC3"
		},
		{
			"bufferView" : 1,
			"byteOffset" : 342552,
			"componentType" : 5126,
			"count" : 3609,
			"max" : 
			[
				1.003001,
				2.037206,
				1.024151
			],
			"min" : 
			[
				-0.949939,
				1.380108,
				-0.6542527
			],
			"name" : "accessor_position_m2-PolyPaper12_-612860",
			"type" : "VEC3"
		}
	],
	"asset" : 
	{
		"copyright" : "Unknown",
		"generator" : "glTF 1-to-2 Upgrader for Google Blocks",
		"version" : "2.0"
	},
	"bufferViews" : 
	[
		{
			"buffer" : 0,
			"byteLength" : 52968,
			"byteOffset" : 0,
			"name" : "ushortBufferView",
			"target" : 34963
		},
		{
			"buffer" : 0,
			"byteLength" : 429168,
			"byteOffset" : 52968,
			"byteStride" : 12,
			"name" : "vec3BufferView",
			"target" : 34962
		},
		{
			"buffer" : 0,
			"byteLength" : 286112,
			"byteOffset" : 482136,
			"byteStride" : 16,
			"name" : "vec4BufferView",
			"target" : 34962
		}
	],
	"buffers" : 
	[
		{
			"byteLength" : 768248,
			"name" : "model",
			"uri" : "model.bin"
		}
	],
	"materials" : 
	[
		{
			"alphaMode" : "OPAQUE",
			"doubleSided" : false,
			"name" : "BlocksPaper",
			"pbrMetallicRoughness" : 
			{
				"baseColorFactor" : 
				[
					1,
					1,
					1,
					1
				],
				"metallicFactor" : 0,
				"roughnessFactor" : 0.6
			}
		},
		{
			"alphaMode" : "BLEND",
			"doubleSided" : false,
			"name" : "BlocksGlass",
			"pbrMetallicRoughness" : 
			{
				"baseColorFactor" : 
				[
					0.2,
					0.2,
					1,
					0.3
				],
				"metallicFactor" : 1,
				"roughnessFactor" : 0.4
			}
		},
		{
			"alphaMode" : "OPAQUE",
			"doubleSided" : true,
			"name" : "BlocksGem",
			"pbrMetallicRoughness" : 
			{
				"baseColorFactor" : 
				[
					1,
					0.4,
					1,
					1
				],
				"metallicFactor" : 0,
				"roughnessFactor" : 0.1
			}
		}
	],
	"meshes" : 
	[
		{
			"name" : "mesh_m0-PolyPaper17_-612848",
			"primitives" : 
			[
				{
					"attributes" : 
					{
						"COLOR_0" : 0,
						"NORMAL" : 6,
						"POSITION" : 9
					},
					"indices" : 3,
					"material" : 0,
					"mode" : 4
				}
			]
		},
		{
			"name" : "mesh_m1-PolyGlass24_-612854",
			"primitives" : 
			[
				{
					"attributes" : 
					{
						"COLOR_0" : 1,
						"NORMAL" : 7,
						"POSITION" : 10
					},
					"indices" : 4,
					"material" : 1,
					"mode" : 4
				}
			]
		},
		{
			"name" : "mesh_m2-PolyPaper12_-612860",
			"primitives" : 
			[
				{
					"attributes" : 
					{
						"COLOR_0" : 2,
						"NORMAL" : 8,
						"POSITION" : 11
					},
					"indices" : 5,
					"material" : 0,
					"mode" : 4
				}
			]
		}
	],
	"nodes" : 
	[
		{
			"matrix" : 
			[
				1,
				0,
				0,
				0,
				0,
				1,
				0,
				0,
				0,
				0,
				1,
				0,
				0,
				0,
				0,
				1
			],
			"mesh" : 0,
			"name" : "node_MeshObject-1034333184-PolyPaper17"
		},
		{
			"matrix" : 
			[
				1,
				0,
				0,
				0,
				0,
				1,
				0,
				0,
				0,
				0,
				1,
				0,
				0,
				0,
				0,
				1
			],
			"mesh" : 2,
			"name" : "node_MeshObject-404407296-PolyPaper12"
		},
		{
			"matrix" : 
			[
				1,
				0,
				0,
				0,
				0,
				1,
				0,
				0,
				0,
				0,
				1,
				0,
				0,
				0,
				0,
				1
			],
			"mesh" : 1,
			"name" : "node_MeshObject-462254080-PolyGlass24"
		}
	],
	"scene" : 0,
	"scenes" : 
	[
		{
			"extras" : {},
			"name" : "defaultScene",
			"nodes" : 
			[
				0,
				2,
				1
			]
		}
	]
}